PathFileType	4	(X/Y/Z) shrug_2kg_1.trc																										
DataRate	CameraRate	NumFrames	NumMarkers	Units	OrigDataRate	OrigDataStartFrame	OrigNumFrames																					
100	100	43	9	mm	100	310	433																					
Frame#	Time	gu			centelbow			EpL			centpxt8			centijc7			ij			ts			aa			ai		
		X1	Y1	Z1	X2	Y2	Z2	X3	Y3	Z3	X4	Y4	Z4	X5	Y5	Z5	X6	Y6	Z6	X7	Y7	Z7	X8	Y8	Z8	X9	Y9	Z9
309	3.09	-89.074	-12.813	165.044	-135.384	-255.004	178.575	-120.598	-252.167	207.084	-46.816	-153.158	-8.669	-46.816	31.938	-8.669	0	0	0	-136.976	33.587	49.45	-115.143	24.124	166.32	-164.313	-76.577	50.956
310	3.1	-89.214	-12.66	165.143	-135.68	-254.828	178.544	-120.934	-252.006	207.076	-46.816	-153.158	-8.669	-46.816	31.938	-8.669	0	0	0	-136.991	33.703	49.316	-115.234	24.214	166.198	-164.388	-76.447	50.792
311	3.11	-89.326	-12.39	165.055	-135.938	-254.537	178.339	-121.224	-251.73	206.888	-46.816	-153.158	-8.669	-46.816	31.938	-8.669	0	0	0	-136.967	33.718	49.093	-115.272	24.207	165.984	-164.428	-76.415	50.546
312	3.12	-89.385	-12.31	164.775	-136.201	-254.422	177.96	-121.507	-251.635	206.522	-46.816	-153.158	-8.669	-46.816	31.938	-8.669	0	0	0	-136.886	33.716	48.841	-115.249	24.185	165.741	-164.413	-76.402	50.276
313	3.13	-89.504	-12.566	164.49	-136.592	-254.632	177.576	-121.914	-251.868	206.148	-46.816	-153.158	-8.669	-46.816	31.938	-8.669	0	0	0	-136.824	33.737	48.578	-115.244	24.174	165.487	-164.412	-76.365	49.981
314	3.14	-89.82	-12.922	164.361	-137.171	-254.943	177.323	-122.513	-252.205	205.907	-46.816	-153.158	-8.669	-46.816	31.938	-8.669	0	0	0	-136.933	33.827	48.339	-115.407	24.21	165.253	-164.571	-76.263	49.688
315	3.15	-90.328	-13.079	164.379	-137.878	-255.068	177.2	-123.244	-252.353	205.799	-46.816	-153.158	-8.669	-46.816	31.938	-8.669	0	0	0	-137.257	33.987	48.229	-115.79	24.31	165.15	-164.945	-76.092	49.52
316	3.16	-90.831	-13.103	164.415	-138.542	-255.066	177.122	-123.928	-252.37	205.733	-46.816	-153.158	-8.669	-46.816	31.938	-8.669	0	0	0	-137.573	34.084	48.328	-116.172	24.365	165.256	-165.311	-75.983	49.573
317	3.17	-91.09	-13.189	164.35	-138.949	-255.127	176.994	-124.341	-252.446	205.609	-46.816	-153.158	-8.669	-46.816	31.938	-8.669	0	0	0	-137.607	34.047	48.536	-116.264	24.315	165.475	-165.386	-76.01	49.763
318	3.18	-91.086	-13.283	164.167	-139.047	-255.203	176.782	-124.432	-252.532	205.395	-46.816	-153.158	-8.669	-46.816	31.938	-8.669	0	0	0	-137.395	33.995	48.659	-116.092	24.276	165.606	-165.192	-76.057	49.892
319	3.19	-91.015	-13.246	163.913	-139.015	-255.158	176.512	-124.394	-252.493	205.123	-46.816	-153.158	-8.669	-46.816	31.938	-8.669	0	0	0	-137.212	34.018	48.599	-115.944	24.322	165.554	-165.013	-76.033	49.846
320	3.2	-91.002	-13.175	163.668	-139.035	-255.081	176.26	-124.412	-252.419	204.87	-46.816	-153.158	-8.669	-46.816	31.938	-8.669	0	0	0	-137.216	34.031	48.45	-115.996	24.351	165.415	-165.032	-76.016	49.704
321	3.21	-91.007	-13.289	163.587	-139.134	-255.177	176.176	-124.51	-252.52	204.786	-46.816	-153.158	-8.669	-46.816	31.938	-8.669	0	0	0	-137.332	33.934	48.406	-116.171	24.266	165.383	-165.183	-76.104	49.664
322	3.22	-91.035	-13.592	163.788	-139.298	-255.453	176.366	-124.677	-252.806	204.978	-46.816	-153.158	-8.669	-46.816	31.938	-8.669	0	0	0	-137.418	33.748	48.534	-116.32	24.104	165.524	-165.31	-76.279	49.807
323	3.23	-91.144	-13.849	164.165	-139.502	-255.692	176.718	-124.887	-253.052	205.334	-46.816	-153.158	-8.669	-46.816	31.938	-8.669	0	0	0	-137.425	33.596	48.676	-116.375	23.984	165.678	-165.335	-76.427	49.972
324	3.24	-91.255	-13.87	164.481	-139.606	-255.715	177.019	-125.001	-253.074	205.64	-46.816	-153.158	-8.669	-46.816	31.938	-8.669	0	0	0	-137.383	33.632	48.68	-116.364	24.043	165.689	-165.268	-76.397	49.985
325	3.25	-91.241	-13.72	164.625	-139.534	-255.576	177.171	-124.943	-252.928	205.798	-46.816	-153.158	-8.669	-46.816	31.938	-8.669	0	0	0	-137.356	33.897	48.586	-116.374	24.32	165.602	-165.191	-76.144	49.883
326	3.26	-91.149	-13.556	164.609	-139.393	-255.421	177.179	-124.814	-252.764	205.811	-46.816	-153.158	-8.669	-46.816	31.938	-8.669	0	0	0	-137.391	34.229	48.515	-116.453	24.661	165.54	-165.192	-75.821	49.803
327	3.27	-91.111	-13.375	164.453	-139.28	-255.255	177.04	-124.707	-252.59	205.674	-46.816	-153.158	-8.669	-46.816	31.938	-8.669	0	0	0	-137.441	34.408	48.489	-116.534	24.86	165.522	-165.235	-75.644	49.788
328	3.28	-91.172	-13.147	164.208	-139.214	-255.052	176.796	-124.645	-252.378	205.432	-46.816	-153.158	-8.669	-46.816	31.938	-8.669	0	0	0	-137.426	34.376	48.436	-116.535	24.865	165.474	-165.224	-75.674	49.765
329	3.29	-91.285	-13.006	164.032	-139.235	-254.929	176.611	-124.675	-252.25	205.251	-46.816	-153.158	-8.669	-46.816	31.938	-8.669	0	0	0	-137.356	34.249	48.331	-116.492	24.782	165.377	-165.151	-75.802	49.695
330	3.3	-91.451	-13.049	164.086	-139.42	-254.969	176.648	-124.876	-252.289	205.296	-46.816	-153.158	-8.669	-46.816	31.938	-8.669	0	0	0	-137.327	34.177	48.285	-116.514	24.75	165.344	-165.109	-75.877	49.672
331	3.31	-91.763	-13.141	164.307	-139.802	-255.049	176.841	-125.279	-252.371	205.5	-46.816	-153.158	-8.669	-46.816	31.938	-8.669	0	0	0	-137.443	34.213	48.356	-116.703	24.813	165.43	-165.202	-75.847	49.746
332	3.32	-92.19	-13.116	164.417	-140.26	-255.019	176.926	-125.754	-252.342	205.594	-46.816	-153.158	-8.669	-46.816	31.938	-8.669	0	0	0	-137.706	34.285	48.415	-117.05	24.902	165.505	-165.445	-75.78	49.798
333	3.33	-92.496	-13.009	164.272	-140.57	-254.912	176.772	-126.076	-252.234	205.446	-46.816	-153.158	-8.669	-46.816	31.938	-8.669	0	0	0	-137.935	34.348	48.355	-117.361	24.979	165.46	-165.667	-75.719	49.73
334	3.34	-92.508	-12.959	164.023	-140.598	-254.858	176.533	-126.113	-252.178	205.211	-46.816	-153.158	-8.669	-46.816	31.938	-8.669	0	0	0	-137.945	34.4	48.203	-117.44	25.052	165.323	-165.679	-75.667	49.582
335	3.35	-92.308	-12.987	163.906	-140.397	-254.885	176.435	-125.923	-252.2	205.118	-46.816	-153.158	-8.669	-46.816	31.938	-8.669	0	0	0	-137.825	34.394	48.03	-117.378	25.078	165.162	-165.556	-75.673	49.424
336	3.36	-92.149	-12.959	164.021	-140.177	-254.868	176.57	-125.721	-252.174	205.261	-46.816	-153.158	-8.669	-46.816	31.938	-8.669	0	0	0	-137.796	34.357	47.903	-117.408	25.071	165.047	-165.513	-75.714	49.308
337	3.37	-92.158	-12.809	164.244	-140.099	-254.734	176.824	-125.659	-252.027	205.522	-46.816	-153.158	-8.669	-46.816	31.938	-8.669	0	0	0	-137.888	34.4	47.851	-117.558	25.137	165.008	-165.586	-75.675	49.261
338	3.38	-92.249	-12.637	164.305	-140.123	-254.573	176.937	-125.687	-251.855	205.636	-46.816	-153.158	-8.669	-46.816	31.938	-8.669	0	0	0	-137.993	34.506	47.81	-117.708	25.268	164.977	-165.679	-75.572	49.23
339	3.39	-92.385	-12.506	164.084	-140.204	-254.449	176.77	-125.76	-251.724	205.464	-46.816	-153.158	-8.669	-46.816	31.938	-8.669	0	0	0	-138.099	34.558	47.706	-117.844	25.352	164.88	-165.78	-75.521	49.148
340	3.4	-92.609	-12.4	163.721	-140.361	-254.353	176.471	-125.906	-251.618	205.159	-46.816	-153.158	-8.669	-46.816	31.938	-8.669	0	0	0	-138.26	34.523	47.57	-118.033	25.343	164.751	-165.939	-75.556	49.029
341	3.41	-92.824	-12.379	163.439	-140.529	-254.336	176.297	-126.068	-251.587	204.981	-46.816	-153.158	-8.669	-46.816	31.938	-8.669	0	0	0	-138.416	34.452	47.492	-118.237	25.287	164.682	-166.102	-75.625	48.954
342	3.42	-92.9	-12.499	163.344	-140.602	-254.449	176.346	-126.145	-251.682	205.03	-46.816	-153.158	-8.669	-46.816	31.938	-8.669	0	0	0	-138.427	34.392	47.512	-118.319	25.237	164.715	-166.13	-75.681	48.971
343	3.43	-92.86	-12.684	163.398	-140.576	-254.625	176.516	-126.129	-251.843	205.203	-46.816	-153.158	-8.669	-46.816	31.938	-8.669	0	0	0	-138.284	34.356	47.582	-118.248	25.223	164.799	-166	-75.714	49.046
344	3.44	-92.852	-12.786	163.534	-140.547	-254.727	176.726	-126.112	-251.933	205.418	-46.816	-153.158	-8.669	-46.816	31.938	-8.669	0	0	0	-138.179	34.366	47.655	-118.196	25.273	164.885	-165.887	-75.705	49.143
345	3.45	-92.985	-12.762	163.682	-140.633	-254.709	176.924	-126.209	-251.903	205.621	-46.816	-153.158	-8.669	-46.816	31.938	-8.669	0	0	0	-138.262	34.433	47.723	-118.318	25.389	164.963	-165.946	-75.644	49.243
346	3.46	-93.216	-12.73	163.702	-140.836	-254.681	176.972	-126.418	-251.869	205.67	-46.816	-153.158	-8.669	-46.816	31.938	-8.669	0	0	0	-138.449	34.497	47.745	-118.542	25.488	164.995	-166.108	-75.586	49.285
347	3.47	-93.429	-12.78	163.585	-141.045	-254.732	176.859	-126.629	-251.918	205.559	-46.816	-153.158	-8.669	-46.816	31.938	-8.669	0	0	0	-138.605	34.49	47.694	-118.752	25.497	164.954	-166.249	-75.597	49.233
348	3.48	-93.585	-12.865	163.565	-141.191	-254.82	176.841	-126.785	-252.003	205.546	-46.816	-153.158	-8.669	-46.816	31.938	-8.669	0	0	0	-138.73	34.408	47.637	-118.941	25.42	164.908	-166.364	-75.682	49.163
349	3.49	-93.704	-12.939	163.778	-141.295	-254.894	177.082	-126.906	-252.07	205.794	-46.816	-153.158	-8.669	-46.816	31.938	-8.669	0	0	0	-138.814	34.29	47.651	-119.079	25.31	164.931	-166.444	-75.801	49.171
350	3.5	-93.782	-12.94	163.976	-141.362	-254.895	177.338	-126.983	-252.061	206.054	-46.816	-153.158	-8.669	-46.816	31.938	-8.669	0	0	0	-138.805	34.258	47.695	-119.103	25.303	164.983	-166.429	-75.834	49.229
351	3.51	-93.836	-12.826	163.875	-141.393	-254.782	177.294	-127.01	-251.94	206.008	-46.816	-153.158	-8.669	-46.816	31.938	-8.669	0	0	0	-138.748	34.406	47.665	-119.067	25.489	164.959	-166.355	-75.69	49.227
